<svg width="46" height="36" viewBox="0 0 46 36" fill="none" xmlns="http://www.w3.org/2000/svg">
<path d="M30.5 3C30.9 1.4 31.5 0 33 0C35 0 35.6 1.4 36 3C36.5 5 35.5 10.5 37.5 12C39.5 13.5 42.6231 14.5615 43.5 15C44.2159 15.3579 46 16 46 17.5C46 19 44.5 19.75 43.5 20C42.5 20.25 39.5 21 38 22.5C36.5 24 37.118 31.2639 36 33.5C35.5 34.5 35 35.5 33.5 35.5C32 35.5 31 34.5 30.5 33.5C29.382 31.2639 30 24 28.5 22.5C27 21 24 20.25 23 20C22 19.75 20.5 19 20.5 17.5C20.5 16 22.2841 15.358 23 15C23.8769 14.5616 27 13.5 29 12C31 10.5 30 5 30.5 3Z" fill="#D579AF"/>
<path d="M5.4902 9.69014C5.7098 8.78873 6.03922 8 6.86274 8C7.96078 8 8.2902 8.78873 8.5098 9.69014C8.78431 10.8169 8.23529 13.9155 9.33333 14.7606C10.4314 15.6056 12.146 16.2037 12.6275 16.4507C13.0205 16.6524 14 17.0141 14 17.8592C14 18.7042 13.1765 19.1268 12.6275 19.2676C12.0784 19.4084 10.4314 19.831 9.60784 20.6761C8.78431 21.5211 9.12363 25.6135 8.5098 26.8732C8.23529 27.4366 7.96078 28 7.13725 28C6.31372 28 5.76471 27.4366 5.4902 26.8732C4.87637 25.6135 5.21569 21.5211 4.39216 20.6761C3.56863 19.831 1.92157 19.4085 1.37255 19.2676C0.823528 19.1268 -9.53674e-07 18.7042 -9.53674e-07 17.8592C-9.53674e-07 17.0141 0.97951 16.6524 1.37255 16.4507C1.85399 16.2037 3.56863 15.6056 4.66667 14.7606C5.76471 13.9155 5.21569 10.8169 5.4902 9.69014Z" fill="#D579AF"/>
</svg>
