<svg width="761" height="90" viewBox="0 0 761 90" fill="none" xmlns="http://www.w3.org/2000/svg">
<path d="M303 71.8175C303 81.6577 310.977 89.6348 320.817 89.6348H743.183C753.023 89.6348 761 81.6577 761 71.8175V71.8175C761 61.9772 753.023 54.0001 743.183 54.0001H320.817C310.977 54.0001 303 61.9772 303 71.8175V71.8175Z" fill="white"/>
<path d="M3 20C3 30.4934 11.5066 39 22 39H220C230.493 39 239 30.4934 239 20V20C239 9.50659 230.493 1 220 1H22C11.5066 1 3 9.50659 3 20V20Z" fill="white"/>
<path d="M3 71C3 81.4934 11.5066 90 22 90H62C72.4934 90 81 81.4934 81 71V71C81 60.5066 72.4934 52 62 52H22C11.5066 52 3 60.5066 3 71V71Z" fill="white"/>
<path d="M112 70.8656C112 81.2846 120.446 89.731 130.865 89.731H251.135C261.554 89.731 270 81.2846 270 70.8656V70.8656C270 60.4465 261.554 52.0002 251.135 52.0002H130.865C120.446 52.0002 112 60.4465 112 70.8656V70.8656Z" fill="#D579AF"/>
<path d="M270 19.8656C270 30.2846 278.446 38.731 288.865 38.731H296.135C306.554 38.731 315 30.2846 315 19.8656V19.8656C315 9.44651 306.554 1.00019 296.135 1.00019H288.865C278.446 1.00019 270 9.44651 270 19.8656V19.8656Z" fill="white"/>
<path d="M408 20C408 30.4934 416.507 39 427 39H742C752.493 39 761 30.4934 761 20V20C761 9.50659 752.493 1 742 1H427C416.507 1 408 9.50659 408 20V20Z" fill="#D579AF"/>
<rect width="28" height="39" fill="white"/>
<rect y="52" width="28" height="38" fill="white"/>
</svg>
