<svg width="72" height="219" viewBox="0 0 72 219" fill="none" xmlns="http://www.w3.org/2000/svg">
<path d="M71.5596 79.3379C34.0438 79.4328 3.90857 107.834 2.08196 144.818C0.163895 183.653 32.1656 216.9 71.5596 217" stroke="#D579AF" stroke-width="4"/>
<path d="M71.9999 93.7744C37.6275 93.849 21.3038 119.038 19.7613 145.849C18.3967 169.566 35.9066 201.969 71.9999 202.048" stroke="#D579AF" stroke-width="4"/>
<path d="M72 115.429C50.7192 115.473 40.6128 130.347 39.6578 146.178C38.8129 160.182 49.6538 179.316 72 179.362" stroke="#D579AF" stroke-width="4"/>
<path d="M72 2C52.8416 2.04549 37.4523 15.661 36.5194 33.391C35.5399 52.0086 51.8824 67.9474 72 67.9952" stroke="white" stroke-width="4"/>
<path d="M72 10C54.838 10.0355 46.6877 21.2486 45.9175 34.0156C45.2362 45.3094 53.9788 58.4627 72 58.5" stroke="white" stroke-width="4"/>
<path d="M72 18.499C61.0163 18.5203 55.8001 25.7172 55.3072 33.3774C54.8712 40.1537 60.4664 49.4119 72 49.4343" stroke="white" stroke-width="4"/>
</svg>
