<svg width="72" height="219" viewBox="0 0 72 219" fill="none" xmlns="http://www.w3.org/2000/svg">
<path d="M0.440433 79.3379C37.9562 79.4328 68.0914 107.834 69.918 144.818C71.8361 183.653 39.8344 216.9 0.440433 217" stroke="#D579AF" stroke-width="4"/>
<path d="M6.47279e-05 93.7744C34.3725 93.849 50.6962 119.038 52.2387 145.849C53.6033 169.566 36.0934 201.969 6.47279e-05 202.048" stroke="#D579AF" stroke-width="4"/>
<path d="M2.83194e-06 115.429C21.2808 115.473 31.3872 130.347 32.3422 146.178C33.1871 160.182 22.3462 179.316 2.83194e-06 179.362" stroke="#D579AF" stroke-width="4"/>
<path d="M1.24094e-05 2C19.1584 2.04549 34.5477 15.661 35.4805 33.391C36.4601 52.0086 20.1176 67.9474 1.24094e-05 67.9952" stroke="white" stroke-width="4"/>
<path d="M4.57764e-05 10C17.162 10.0355 25.3123 21.2486 26.0825 34.0156C26.7638 45.3094 18.0212 58.4627 4.57764e-05 58.5" stroke="white" stroke-width="4"/>
<path d="M1.26973e-05 18.499C10.9837 18.5203 16.1999 25.7172 16.6928 33.3774C17.1288 40.1537 11.5336 49.4119 1.26973e-05 49.4343" stroke="white" stroke-width="4"/>
</svg>
