<svg width="46" height="36" viewBox="0 0 46 36" fill="none" xmlns="http://www.w3.org/2000/svg">
<path d="M15.5 3C15.1 1.4 14.5 0 13 0C11 0 10.4 1.4 10 3C9.5 5 10.5 10.5 8.5 12C6.5 13.5 3.37691 14.5615 2.5 15C1.78411 15.3579 0 16 0 17.5C0 19 1.5 19.75 2.5 20C3.5 20.25 6.5 21 8 22.5C9.5 24 8.88197 31.2639 10 33.5C10.5 34.5 11 35.5 12.5 35.5C14 35.5 15 34.5 15.5 33.5C16.618 31.2639 16 24 17.5 22.5C19 21 22 20.25 23 20C24 19.75 25.5 19 25.5 17.5C25.5 16 23.7159 15.358 23 15C22.1231 14.5616 19 13.5 17 12C15 10.5 16 5 15.5 3Z" fill="#D579AF"/>
<path d="M40.5098 9.69014C40.2902 8.78873 39.9608 8 39.1373 8C38.0392 8 37.7098 8.78873 37.4902 9.69014C37.2157 10.8169 37.7647 13.9155 36.6667 14.7606C35.5686 15.6056 33.854 16.2037 33.3725 16.4507C32.9795 16.6524 32 17.0141 32 17.8592C32 18.7042 32.8235 19.1268 33.3725 19.2676C33.9216 19.4084 35.5686 19.831 36.3922 20.6761C37.2157 21.5211 36.8764 25.6135 37.4902 26.8732C37.7647 27.4366 38.0392 28 38.8627 28C39.6863 28 40.2353 27.4366 40.5098 26.8732C41.1236 25.6135 40.7843 21.5211 41.6078 20.6761C42.4314 19.831 44.0784 19.4085 44.6275 19.2676C45.1765 19.1268 46 18.7042 46 17.8592C46 17.0141 45.0205 16.6524 44.6275 16.4507C44.146 16.2037 42.4314 15.6056 41.3333 14.7606C40.2353 13.9155 40.7843 10.8169 40.5098 9.69014Z" fill="#D579AF"/>
</svg>
