<svg width="761" height="90" viewBox="0 0 761 90" fill="none" xmlns="http://www.w3.org/2000/svg">
<path d="M458 71.8175C458 81.6577 450.023 89.6348 440.183 89.6348H17.8173C7.97708 89.6348 -1.23382e-05 81.6577 -1.23382e-05 71.8175V71.8175C-1.23382e-05 61.9772 7.97707 54.0001 17.8173 54.0001H440.183C450.023 54.0001 458 61.9772 458 71.8175V71.8175Z" fill="white"/>
<path d="M758 20C758 30.4934 749.493 39 739 39H541C530.507 39 522 30.4934 522 20V20C522 9.50659 530.507 1 541 1H739C749.493 1 758 9.50659 758 20V20Z" fill="white"/>
<path d="M758 71C758 81.4934 749.493 90 739 90H699C688.507 90 680 81.4934 680 71V71C680 60.5066 688.507 52 699 52H739C749.493 52 758 60.5066 758 71V71Z" fill="white"/>
<path d="M649 70.8656C649 81.2846 640.554 89.731 630.135 89.731H509.865C499.446 89.731 491 81.2846 491 70.8656V70.8656C491 60.4465 499.446 52.0002 509.865 52.0002H630.135C640.554 52.0002 649 60.4465 649 70.8656V70.8656Z" fill="#D579AF"/>
<path d="M491 19.8656C491 30.2846 482.554 38.731 472.135 38.731H464.865C454.446 38.731 446 30.2846 446 19.8656V19.8656C446 9.44651 454.446 1.00019 464.865 1.00019H472.135C482.554 1.00019 491 9.44651 491 19.8656V19.8656Z" fill="white"/>
<path d="M353 20C353 30.4934 344.493 39 334 39H19C8.5066 39 7.689e-06 30.4934 7.689e-06 20V20C7.689e-06 9.50659 8.5066 1 19 1H334C344.493 1 353 9.50659 353 20V20Z" fill="#D579AF"/>
<rect width="28" height="39" transform="matrix(-1 0 0 1 761 0)" fill="white"/>
<rect width="28" height="38" transform="matrix(-1 0 0 1 761 52)" fill="white"/>
</svg>
