<svg width="25" height="28" viewBox="0 0 25 28" fill="none" xmlns="http://www.w3.org/2000/svg">
<path d="M24.2866 19.7854L18.8179 17.1604C18.5842 17.0489 18.3246 17.0254 18.078 17.0935C17.8315 17.1615 17.6113 17.3175 17.4507 17.5378L15.0288 20.8518C11.2279 18.8447 8.16904 15.4188 6.37695 11.1618L9.33594 8.44927C9.53304 8.26972 9.67256 8.02313 9.73335 7.74684C9.79414 7.47054 9.7729 7.17959 9.67285 6.91802L7.3291 0.79302C7.21929 0.511056 7.02508 0.280841 6.77996 0.142074C6.53483 0.00330594 6.25416 -0.0353174 5.98633 0.0328635L0.908203 1.34536C0.649985 1.41215 0.419602 1.57498 0.254656 1.8073C0.0897096 2.03962 -5.94829e-05 2.32769 2.95713e-08 2.6245C2.95713e-08 16.6518 10.1514 27.9995 22.6562 27.9995C22.9213 27.9997 23.1787 27.8992 23.3862 27.7145C23.5937 27.5297 23.7392 27.2716 23.7988 26.9823L24.9707 21.2948C25.0312 20.9934 24.996 20.6778 24.8711 20.4023C24.7463 20.1268 24.5396 19.9087 24.2866 19.7854Z" fill="black"/>
</svg>
